<?xml version="1.0" encoding="iso-8859-1"?>
<!-- Generator: Adobe Illustrator 19.0.0, SVG Export Plug-In . SVG Version: 6.00 Build 0)  -->
<svg version="1.1" id="Capa_1" xmlns="http://www.w3.org/2000/svg" xmlns:xlink="http://www.w3.org/1999/xlink" x="0px" y="0px"
	 viewBox="0 0 490.88 490.88" style="enable-background:new 0 0 490.88 490.88;" xml:space="preserve">
<g>
	<g>
		<path d="M245.44,0C110.101,0,0,110.101,0,245.44s110.101,245.44,245.44,245.44s245.44-110.101,245.44-245.44S380.779,0,245.44,0z
			 M245.44,469.547c-123.563,0-224.107-100.544-224.107-224.107S121.877,21.333,245.44,21.333S469.547,121.877,469.547,245.44
			S369.003,469.547,245.44,469.547z"/>
	</g>
</g>
<g>
	<g>
		<path d="M338.432,238.016l-128-128c-4.16-4.16-10.923-4.16-15.083,0c-4.16,4.16-4.16,10.923,0,15.083l120.427,120.469
			L195.328,366.016c-4.16,4.16-4.16,10.923,0,15.083c2.091,2.069,4.821,3.115,7.552,3.115s5.461-1.024,7.552-3.115l128-128
			C342.592,248.939,342.592,242.176,338.432,238.016z"/>
	</g>
</g>
<g>
</g>
<g>
</g>
<g>
</g>
<g>
</g>
<g>
</g>
<g>
</g>
<g>
</g>
<g>
</g>
<g>
</g>
<g>
</g>
<g>
</g>
<g>
</g>
<g>
</g>
<g>
</g>
<g>
</g>
</svg>
